<?xml version="1.0" encoding="UTF-8" standalone="no"?>

<svg
        width="80.311279mm"
        height="27.244139mm"
        viewBox="0 0 80.311279 27.244139"
        version="1.1"
        id="svg1"
        xmlns="http://www.w3.org/2000/svg"
        xmlns:svg="http://www.w3.org/2000/svg">
    <defs
            id="defs1">
        <clipPath
                id="clippath-9">
            <rect
                    class="st15"
                    width="841.89001"
                    height="595.28003"
                    id="rect44"
                    x="0"
                    y="0"/>
        </clipPath>
        <clipPath
                id="clippath-10">
            <path
                    class="st15"
                    d="m 274.87,247.25 c -5.97,-39.27 18.32,-61.77 73.67,-56.84 l 17.44,-26.4 c -8.55,-1.23 -16.65,-1.82 -24.24,-1.82 -56.97,0 -85.54,33.5 -66.87,85.06"
                    id="path44"/>
        </clipPath>
        <linearGradient
                id="Dégradé_sans_nom_5"
                x1="0"
                y1="595.29999"
                x2="1"
                y2="595.29999"
                gradientTransform="matrix(-79.75,0,0,79.75,342.59,-47272.45)"
                gradientUnits="userSpaceOnUse">
            <stop
                    offset="0"
                    stop-color="#41b48e"
                    id="stop45"/>
            <stop
                    offset=".24"
                    stop-color="#41b48e"
                    id="stop46"/>
            <stop
                    offset=".46"
                    stop-color="#3fb18c"
                    id="stop47"/>
            <stop
                    offset=".58"
                    stop-color="#3ca987"
                    id="stop48"/>
            <stop
                    offset=".68"
                    stop-color="#369b7f"
                    id="stop49"/>
            <stop
                    offset=".77"
                    stop-color="#2d8774"
                    id="stop50"/>
            <stop
                    offset=".84"
                    stop-color="#226e65"
                    id="stop51"/>
            <stop
                    offset=".92"
                    stop-color="#144e52"
                    id="stop52"/>
            <stop
                    offset=".98"
                    stop-color="#042a3d"
                    id="stop53"/>
            <stop
                    offset="1"
                    stop-color="#001f37"
                    id="stop54"/>
        </linearGradient>
        <clipPath
                id="clippath-11">
            <path
                    class="st15"
                    d="m 280.14,255.23 c 2.4,-31.38 20.84,-40.65 51.31,-38.95 l 9.88,-14.96 c -3.85,-0.39 -7.59,-0.59 -11.19,-0.59 -34.35,0 -56.8,17.76 -50,54.49"
                    id="path54"/>
        </clipPath>
        <linearGradient
                id="Dégradé_sans_nom_6"
                x1="0"
                y1="595.28998"
                x2="1"
                y2="595.28998"
                gradientTransform="matrix(-79.61,0,0,79.61,347.8,-47163.18)"
                gradientUnits="userSpaceOnUse">
            <stop
                    offset="0"
                    stop-color="#41b48e"
                    id="stop55"/>
            <stop
                    offset=".24"
                    stop-color="#41b48e"
                    id="stop56"/>
            <stop
                    offset=".46"
                    stop-color="#3fb18c"
                    id="stop57"/>
            <stop
                    offset=".58"
                    stop-color="#3ca987"
                    id="stop58"/>
            <stop
                    offset=".68"
                    stop-color="#369b7f"
                    id="stop59"/>
            <stop
                    offset=".77"
                    stop-color="#2d8774"
                    id="stop60"/>
            <stop
                    offset=".84"
                    stop-color="#226e65"
                    id="stop61"/>
            <stop
                    offset=".92"
                    stop-color="#144e52"
                    id="stop62"/>
            <stop
                    offset=".98"
                    stop-color="#042a3d"
                    id="stop63"/>
            <stop
                    offset="1"
                    stop-color="#001f37"
                    id="stop64"/>
        </linearGradient>
        <clipPath
                id="clippath-12">
            <path
                    class="st15"
                    d="m 284.64,263 c 5.26,-17.92 15.59,-26.26 32.8,-24.54 l 7.17,-10.85 c -2.41,-0.29 -4.75,-0.44 -7,-0.44 -19.69,0 -33,11.34 -32.97,35.83"
                    id="path64"/>
        </clipPath>
        <linearGradient
                id="Dégradé_sans_nom_7"
                x1="0"
                y1="595.28998"
                x2="1"
                y2="595.28998"
                gradientTransform="matrix(-79.6,0,0,79.6,351.37,-47142.49)"
                gradientUnits="userSpaceOnUse">
            <stop
                    offset="0"
                    stop-color="#41b48e"
                    id="stop65"/>
            <stop
                    offset=".24"
                    stop-color="#41b48e"
                    id="stop66"/>
            <stop
                    offset=".46"
                    stop-color="#3fb18c"
                    id="stop67"/>
            <stop
                    offset=".58"
                    stop-color="#3ca987"
                    id="stop68"/>
            <stop
                    offset=".68"
                    stop-color="#369b7f"
                    id="stop69"/>
            <stop
                    offset=".77"
                    stop-color="#2d8774"
                    id="stop70"/>
            <stop
                    offset=".84"
                    stop-color="#226e65"
                    id="stop71"/>
            <stop
                    offset=".92"
                    stop-color="#144e52"
                    id="stop72"/>
            <stop
                    offset=".98"
                    stop-color="#042a3d"
                    id="stop73"/>
            <stop
                    offset="1"
                    stop-color="#001f37"
                    id="stop74"/>
        </linearGradient>
    </defs>
    <g
            id="layer1"
            transform="translate(-64.822915,-134.9375)">
        <g
                class="st29"
                clip-path="url(#clippath-9)"
                id="g273"
                transform="matrix(0.26458333,0,0,0.26458333,-6.3979613,92.024729)">
            <path
                    class="st48"
                    d="m 366.44,251.16 v 8.06 c 0,1.12 -0.36,2.03 -1.05,2.74 -0.7,0.71 -1.64,1.11 -2.84,1.2 l -0.42,0.02 c -1.3,0 -2.33,-0.35 -3.1,-1.05 -0.77,-0.7 -1.16,-1.66 -1.17,-2.89 v -8.07 h 1.55 v 8.02 c 0,0.86 0.24,1.52 0.71,2 0.47,0.48 1.14,0.71 2.02,0.71 0.88,0 1.56,-0.24 2.03,-0.71 0.47,-0.47 0.7,-1.14 0.7,-1.99 v -8.03 h 1.57 z"
                    id="path262"
                    style="fill:#001f37"/>
            <polygon
                    class="st48"
                    points="379.01,263 377.44,263 371.47,253.87 371.47,263 369.9,263 369.9,251.16 371.47,251.16 377.45,260.33 377.45,251.16 379.01,251.16 "
                    id="polygon262"
                    style="fill:#001f37"/>
            <polygon
                    class="st48"
                    points="384.34,256.25 389.48,256.25 389.48,257.53 384.34,257.53 384.34,261.72 390.31,261.72 390.31,263 382.78,263 382.78,251.16 390.23,251.16 390.23,252.43 384.34,252.43 "
                    id="polygon263"
                    style="fill:#001f37"/>
            <polygon
                    class="st48"
                    points="399.78,253.43 399.94,258.39 399.94,263 398.38,263 398.38,251.16 400.39,251.16 404.27,260.82 408.14,251.16 410.17,251.16 410.17,263 408.6,263 408.6,258.39 408.75,253.41 404.86,263 403.66,263 "
                    id="polygon264"
                    style="fill:#001f37"/>
            <path
                    class="st48"
                    d="m 420.46,259.9 h -4.96 l -1.11,3.1 h -1.61 l 4.52,-11.85 h 1.37 L 423.2,263 h -1.6 l -1.13,-3.1 z m -4.49,-1.27 H 420 l -2.02,-5.54 z"
                    id="path264"
                    style="fill:#001f37"/>
            <path
                    class="st48"
                    d="m 430.14,258.21 h -2.78 V 263 h -1.57 v -11.85 h 3.92 c 1.33,0 2.36,0.3 3.08,0.91 0.72,0.61 1.08,1.49 1.08,2.65 0,0.74 -0.2,1.38 -0.6,1.93 -0.4,0.55 -0.95,0.96 -1.66,1.23 l 2.78,5.03 v 0.1 h -1.68 z m -2.79,-1.28 h 2.4 c 0.78,0 1.39,-0.2 1.85,-0.6 0.46,-0.4 0.69,-0.94 0.69,-1.61 0,-0.73 -0.22,-1.3 -0.65,-1.69 -0.44,-0.39 -1.07,-0.59 -1.89,-0.6 h -2.39 v 4.5 z"
                    id="path265"
                    style="fill:#001f37"/>
            <path
                    class="st48"
                    d="m 446.1,257.46 c 0,1.15 -0.18,2.13 -0.54,2.96 -0.36,0.83 -0.87,1.47 -1.53,1.94 l 2.12,1.66 -1.07,0.98 -2.5,-1.99 c -0.39,0.1 -0.8,0.15 -1.24,0.15 -0.93,0 -1.76,-0.23 -2.48,-0.69 -0.72,-0.46 -1.28,-1.11 -1.68,-1.96 -0.4,-0.85 -0.6,-1.83 -0.62,-2.95 v -0.85 c 0,-1.14 0.2,-2.15 0.59,-3.02 0.4,-0.87 0.96,-1.54 1.68,-2.01 0.72,-0.46 1.55,-0.7 2.48,-0.7 0.93,0 1.8,0.23 2.52,0.69 0.72,0.46 1.28,1.12 1.67,1.99 0.39,0.86 0.58,1.88 0.58,3.03 v 0.76 z m -1.56,-0.76 c 0,-1.39 -0.28,-2.47 -0.83,-3.23 -0.56,-0.76 -1.35,-1.14 -2.38,-1.14 -1.03,0 -1.75,0.38 -2.32,1.13 -0.57,0.75 -0.86,1.8 -0.88,3.13 v 0.87 c 0,1.36 0.28,2.43 0.85,3.21 0.57,0.78 1.35,1.17 2.36,1.17 1.01,0 1.79,-0.37 2.34,-1.1 0.55,-0.73 0.84,-1.79 0.85,-3.16 v -0.88 z"
                    id="path266"
                    style="fill:#001f37"/>
            <path
                    class="st48"
                    d="m 457.85,251.16 v 8.06 c 0,1.12 -0.36,2.03 -1.05,2.74 -0.7,0.71 -1.64,1.11 -2.84,1.2 l -0.41,0.02 c -1.3,0 -2.33,-0.35 -3.1,-1.05 -0.77,-0.7 -1.16,-1.66 -1.17,-2.89 v -8.07 h 1.55 v 8.02 c 0,0.86 0.24,1.52 0.71,2 0.47,0.48 1.14,0.71 2.02,0.71 0.88,0 1.56,-0.24 2.03,-0.71 0.47,-0.47 0.7,-1.14 0.7,-1.99 v -8.03 h 1.57 z"
                    id="path267"
                    style="fill:#001f37"/>
            <polygon
                    class="st48"
                    points="462.87,256.25 468.01,256.25 468.01,257.53 462.87,257.53 462.87,261.72 468.84,261.72 468.84,263 461.31,263 461.31,251.16 468.76,251.16 468.76,252.43 462.87,252.43 "
                    id="polygon267"
                    style="fill:#001f37"/>
            <path
                    class="st48"
                    d="m 476.91,263 v -11.85 h 3.34 c 1.03,0 1.94,0.23 2.73,0.68 0.79,0.46 1.4,1.1 1.83,1.94 0.43,0.84 0.65,1.81 0.65,2.9 v 0.76 c 0,1.12 -0.22,2.1 -0.65,2.94 -0.43,0.84 -1.05,1.49 -1.85,1.94 -0.8,0.45 -1.73,0.68 -2.8,0.69 h -3.28 z m 1.56,-10.57 v 9.29 h 1.64 c 1.2,0 2.14,-0.37 2.81,-1.12 0.67,-0.75 1,-1.82 1,-3.2 v -0.69 c 0,-1.35 -0.32,-2.39 -0.95,-3.14 -0.63,-0.75 -1.53,-1.12 -2.69,-1.14 h -1.82 z"
                    id="path268"
                    style="fill:#001f37"/>
            <polygon
                    class="st48"
                    points="490.4,256.25 495.53,256.25 495.53,257.53 490.4,257.53 490.4,261.72 496.36,261.72 496.36,263 488.83,263 488.83,251.16 496.28,251.16 496.28,252.43 490.4,252.43 "
                    id="polygon268"
                    style="fill:#001f37"/>
            <polygon
                    class="st48"
                    points="506.83,255.86 511.32,255.86 511.32,257.97 506.83,257.97 506.83,260.81 512.13,260.81 512.13,263 503.97,263 503.97,251.16 512.15,251.16 512.15,253.36 506.83,253.36 "
                    id="polygon269"
                    style="fill:#001f37"/>
            <path
                    class="st48"
                    d="m 524.35,257.32 c 0,1.1 -0.18,2.05 -0.55,2.87 -0.36,0.82 -0.86,1.47 -1.51,1.96 l 1.91,1.51 -1.77,1.5 -2.55,-2.05 c -0.24,0.03 -0.48,0.05 -0.72,0.05 -1.01,0 -1.9,-0.23 -2.68,-0.7 -0.78,-0.47 -1.39,-1.13 -1.83,-2 -0.44,-0.87 -0.66,-1.87 -0.68,-2.99 v -0.63 c 0,-1.17 0.21,-2.19 0.64,-3.08 0.43,-0.88 1.03,-1.57 1.82,-2.05 0.79,-0.48 1.69,-0.73 2.71,-0.73 1.02,0 1.9,0.24 2.68,0.72 0.79,0.48 1.4,1.16 1.84,2.04 0.44,0.88 0.66,1.89 0.66,3.03 v 0.54 z m -2.91,-0.49 c 0,-1.18 -0.2,-2.07 -0.59,-2.68 -0.39,-0.61 -0.96,-0.92 -1.69,-0.92 -0.73,0 -1.32,0.3 -1.7,0.9 -0.38,0.6 -0.57,1.48 -0.58,2.64 v 0.54 c 0,1.17 0.19,2.06 0.58,2.68 0.38,0.62 0.96,0.93 1.72,0.93 0.76,0 1.28,-0.31 1.67,-0.92 0.39,-0.61 0.59,-1.49 0.59,-2.64 v -0.55 z"
                    id="path269"
                    style="fill:#001f37"/>
            <path
                    class="st48"
                    d="m 536.09,251.16 v 7.75 c 0,0.88 -0.19,1.64 -0.56,2.28 -0.37,0.64 -0.91,1.13 -1.61,1.47 -0.7,0.34 -1.53,0.5 -2.48,0.5 -1.44,0 -2.58,-0.37 -3.41,-1.12 -0.83,-0.75 -1.25,-1.77 -1.27,-3.08 v -7.81 h 2.87 v 7.87 c 0.03,1.3 0.63,1.95 1.81,1.95 0.59,0 1.04,-0.16 1.34,-0.49 0.3,-0.32 0.46,-0.85 0.46,-1.59 v -7.74 h 2.86 z"
                    id="path270"
                    style="fill:#001f37"/>
            <path
                    class="st48"
                    d="m 545.42,260.79 h -3.91 l -0.68,2.21 h -3.05 l 4.34,-11.85 h 2.69 l 4.38,11.85 h -3.07 l -0.69,-2.21 z m -3.23,-2.21 h 2.55 l -1.28,-4.11 z"
                    id="path271"
                    style="fill:#001f37"/>
            <polygon
                    class="st48"
                    points="560.94,263 558.1,263 553.9,255.63 553.9,263 551.04,263 551.04,251.16 553.9,251.16 558.09,258.53 558.09,251.16 560.94,251.16 "
                    id="polygon271"
                    style="fill:#001f37"/>
            <path
                    class="st48"
                    d="m 569.86,259.85 c 0,-0.42 -0.15,-0.74 -0.44,-0.98 -0.29,-0.23 -0.82,-0.48 -1.56,-0.72 -0.74,-0.25 -1.35,-0.49 -1.82,-0.72 -1.53,-0.75 -2.3,-1.79 -2.3,-3.11 0,-0.66 0.19,-1.24 0.57,-1.74 0.38,-0.5 0.92,-0.89 1.62,-1.17 0.7,-0.28 1.49,-0.42 2.36,-0.42 0.87,0 1.61,0.15 2.29,0.46 0.68,0.3 1.2,0.74 1.57,1.3 0.38,0.56 0.56,1.2 0.56,1.92 h -2.85 c 0,-0.48 -0.15,-0.86 -0.44,-1.12 -0.29,-0.26 -0.7,-0.4 -1.2,-0.4 -0.5,0 -0.91,0.11 -1.21,0.34 -0.3,0.22 -0.44,0.51 -0.44,0.86 0,0.3 0.16,0.58 0.49,0.83 0.32,0.25 0.9,0.5 1.72,0.76 0.82,0.26 1.49,0.55 2.02,0.85 1.28,0.74 1.92,1.76 1.92,3.05 0,1.04 -0.39,1.85 -1.17,2.44 -0.78,0.59 -1.85,0.89 -3.21,0.89 -0.96,0 -1.83,-0.17 -2.61,-0.52 -0.78,-0.34 -1.36,-0.82 -1.76,-1.41 -0.39,-0.6 -0.59,-1.29 -0.59,-2.07 h 2.86 c 0,0.64 0.16,1.1 0.49,1.4 0.33,0.3 0.86,0.45 1.6,0.45 0.47,0 0.84,-0.1 1.12,-0.31 0.27,-0.2 0.41,-0.49 0.41,-0.86"
                    id="path272"
                    style="fill:#001f37"/>
            <rect
                    class="st48"
                    x="357.85999"
                    y="200.74001"
                    width="8.1099997"
                    height="37.849998"
                    id="rect272"
                    style="fill:#001f37"/>
            <polygon
                    class="st48"
                    points="422.69,200.74 422.69,238.6 415.76,238.6 392.09,213.46 392.09,238.6 383.97,238.6 383.97,200.74 391.25,200.74 414.58,225.51 414.58,200.74 "
                    id="polygon272"
                    style="fill:#001f37"/>
            <polygon
                    class="st48"
                    points="472.48,215.48 448.79,215.48 448.79,208.31 476.81,208.31 476.81,200.74 440.69,200.74 440.69,238.59 440.69,238.6 476.81,238.6 476.81,231.03 448.79,231.03 448.79,223.05 472.48,223.05 "
                    id="polygon273"
                    style="fill:#001f37"/>
            <path
                    class="st48"
                    d="m 514.65,200.32 h -2.83 c -12.73,0 -21.35,8.88 -21.35,19.82 0,10.94 8.62,19.82 21.35,19.82 h 2.83 c 12.73,0 21.35,-8.87 21.35,-19.82 0,-10.95 -8.62,-19.82 -21.35,-19.82 m 0,31.53 h -2.83 c -7.8,0 -13.24,-4.82 -13.24,-11.71 0,-6.89 5.45,-11.71 13.24,-11.71 h 2.83 c 7.8,0 13.24,4.82 13.24,11.71 0,6.89 -5.45,11.71 -13.24,11.71"
                    id="path273"
                    style="fill:#001f37"/>
        </g>
        <g
                class="st30"
                clip-path="url(#clippath-10)"
                id="g274"
                transform="matrix(0.26458333,0,0,0.26458333,-6.3979613,92.024729)">
            <rect
                    class="st45"
                    x="248.36"
                    y="151.41"
                    width="125.46"
                    height="106.62"
                    transform="rotate(-12.38,311.10575,204.73524)"
                    id="rect273"
                    style="fill:url(#D%C3%A9grad%C3%A9_sans_nom_5)"/>
        </g>
        <g
                class="st33"
                clip-path="url(#clippath-11)"
                id="g275"
                transform="matrix(0.26458333,0,0,0.26458333,-6.3979613,92.024729)">
            <rect
                    class="st28"
                    x="268.29001"
                    y="194.08"
                    width="78.089996"
                    height="67.800003"
                    transform="rotate(-12.38,307.37213,227.97831)"
                    id="rect274"
                    style="fill:url(#D%C3%A9grad%C3%A9_sans_nom_6)"/>
        </g>
        <g
                class="st42"
                clip-path="url(#clippath-12)"
                id="g276"
                transform="matrix(0.26458333,0,0,0.26458333,-6.3979613,92.024729)">
            <rect
                    class="st25"
                    x="281.23001"
                    y="223.3"
                    width="46.75"
                    height="43.580002"
                    transform="rotate(-12.38,304.63122,245.07887)"
                    id="rect275"
                    style="fill:url(#D%C3%A9grad%C3%A9_sans_nom_7)"/>
        </g>
    </g>
</svg>
